<?xml version="1.0" encoding="utf-8"?>
<!-- Generator: Adobe Illustrator 25.0.1, SVG Export Plug-In . SVG Version: 6.00 Build 0)  -->
<svg version="1.1" id="Ebene_1" xmlns="http://www.w3.org/2000/svg" xmlns:xlink="http://www.w3.org/1999/xlink" x="0px" y="0px"
	 width="128px" height="128px" viewBox="0 0 128 128" style="enable-background:new 0 0 128 128;" xml:space="preserve">
<style type="text/css">
	.st0{fill-rule:evenodd;clip-rule:evenodd;fill:#1D1D1B;}
</style>
<path class="st0" d="M0.87,101.29l0.99-0.04c0.06,0.27-0.03,0.6-0.11,0.86l1.12-0.19l-0.17-0.7c3.62,0.17,3.44,3.33,1.5,5.45
	c-1.74-0.08-0.98,1.09-3.54,0.01c-0.31-1.02-0.75-1.6-0.79-2.69l-0.05-0.68l0.23-1.29L0.87,101.29z M35.61,92.46
	c8.03-0.35,1.07,8.98-0.91,6.11c-0.57-0.81-0.99-1.69-1.63-2.47l0.08-1.7C34.1,94.01,34.96,93.25,35.61,92.46z M76.69,90.67
	c4.48-2.4,5.58,5.21,7.11,7.03c0.69,0.83,6.97,5.73,7.36,6.7c1.01,2.47-1.01,4.77-3.6,4.15c-1.48-0.37-2.96-2.39-4.46-2.22
	l-1.96,0.27c-6.55,0.51-21.67,5.37-10.96-6.7C72.49,97.29,73.96,92.12,76.69,90.67z M49.85,84.39c4.85,0.11-0.01,6.87-1.34,1.75
	C49.17,85.64,49.33,84.98,49.85,84.39z M37.41,84.61l-0.68,0.59c-0.68,1.52,0.22,3.63-2.77,2.87c-1.67-1.08-2.64-4.5,0.14-4.88
	C35.13,83.04,36.38,84.64,37.41,84.61z M115.26,43.29c-2.16,1.4-7.58,9.92-7.22,11.83c0.66,0.72,5.89,1.36,6.83,0.99
	c1.78-0.72,3.48-3.92,3.82-5.37c1.31-0.2,1.57-5.12,1.33-5.55C118.16,44.85,117.39,43.72,115.26,43.29z M87.66,36.35
	c-0.65,0.62-4.69,0.44-7.16,2.24c-3.35,2.43-11.16,8.96-12.18,13.44c-0.36,1.55,0.3,3.5-0.14,4.73c-0.3,0.83-1.35,1.19-1.49,2.1
	c-0.24,1.62,1.69,2.49,2.87,3.04c5.93,2.78,20.14-7.19,19.63-8.92c2.19-1,1.69-1.38,2.54-3.29C94.91,42.57,95.78,39.27,87.66,36.35z
	 M60.08,23.89c-2.37,3.43-4.93,9.18-6.42,13c-0.44,1.14,0.57,2.09,0.35,3.45c4.09,1.13,9.97,3.69,14,3.54l5.74-5.27
	c-2.27-0.49-9.28,2.05-9.92,3.47l-1.43-0.89l-0.84,0.18c1.42-4.71,17.88-10.55,22.54-9.26c11.01,1.06,17.07,5.35,12.86,17.12
	c-0.6,1.68-2.49,2.76-3.52,4.66c0.96,1.16,5.75,2.28,7.59,1.89c1.16-1.3,1.36-1.6,1.73-3.31l0.28-1.31
	c1.17-1.67,3.54-8.48,5.74-8.57L109,41.3c-0.68-0.53,1.59-2.29,1.57-3.04l-0.79-0.52l-2.05-1.62c-0.06-0.8-0.58-1.89-1.51-1.94
	c-8.53-0.42-19.88-6.64-27.77-6.31C76.59,25.82,63.46,24.07,60.08,23.89z M40.05,25.66c0.79,0.37,1.24,4.08,2.23,4.03
	c0.43,1.08,4.26,6.93,5.06,7.43l1.29-0.33c0.94-2.96,3.71-9.28,5.05-12.12C55.43,20.99,39.95,23.46,40.05,25.66z M27.01,19.13
	c2.59-0.1,5.41,1.51,7.77,2.25c2.72,0.85,5.4-0.48,7.98-0.04c1.51-1.08,9.26-1.65,10.8-3.13c1.17-0.34,2.27,0.31,3.33,0.67
	c0.77,0.26,1.86-0.53,2.72-0.49c2.46,0.14,6.86,2.55,9.26,3.46c1.24,0.47,3.01,0.41,4.1,1.23c1.21-0.05,2.17,0.4,3.03,0.67
	c4.13,1.3,39.84,10.77,40.06,10.99c1.19,1.11,0.79,4.07,2.2,6.02c2.94,4.09,8.38,2.01,8.93,7.7c-2.23,4.49-5.15,5.54-4.96,10.28
	c0.98,0.96,0.39,3.49-0.84,3.98c-2.81,1.13-7.29-0.9-12.05-0.3l-2.07,0.26c-1.78,0.27-1.91,2.71-2.75,3.25
	c-1.25,0.79-4.44,1.48-4.54-0.93c-0.46-0.36-1.31-0.33-2.08,0.15c-1.83,1.13-3.55,4.45-4.59,6.34c-1.48,2.68,6.58,26.2,7.9,27.23
	c0.88,0.7,2.17,0.01,3.07,0.66c0.81,0.58,0.83,1.74,1.61,2.36c1.54,1.23,7.65,1.18,9.75,1.09l0.72,0.39
	c0.57-0.48,1.64-0.16,2.27,0.05c0.68-0.67,5.72,0.16,6.51,0.16c1.21,0.01,7.13,3.33-3.82,3.49c-6.22,0.09-12.03-0.32-18.23,0.3
	c-2.74,0.28-3.19-3.85-4.26-4c-0.17-0.8-0.94-1.11-1.21-1.82c-0.64-1.75-5.03-11.14-5-12.07c0.02-0.74,0.19-1.68-0.1-2.4
	c-0.76-1.85-2.45-4.31-3.63-5.93c-0.64-1.32-4.22-6.67-3.59-7.6c0.49-0.75,1.08-1.42,1.5-2.21l1.59-0.72
	c0.32-1.12,3.99-6.62,4.88-7.32l-0.1-1.84c-3.43-0.8-2.51-2.11-3.68-2.4c-1.6,0.87-8.01,4.48-9.86,5.13
	c-3.74,1.32-5.68,3.48-10.22,2.8c-6.4-0.96-8.17-9.12-14.17-0.08c-2.98,4.5,13.06,14.17,12.44,17.52c-0.69,3.72-4.13,2.84-5.72,4.53
	c-1.33,1.42-2.84,2.78-4.13,4.18c-3.08,3.38-4.29,5.88-7.29,9.4c-1.08,1.26-0.48,3-2.18,4.12c-1.43,0.63-6.27-0.63-7.67-0.62
	c-8.58,0.07-23.85-1.6-30.81,1.38c-0.74,0.32-2.19-1.56-3.15-1.54l0.45-2.18c0.97-0.46,1.58-1.05,2.28-1.81
	c2-2.15,29.43,0.38,34.87-0.3l0.22-1.2c1.14-0.82,1.76-2.05,2.87-2.88l1.14,0.09c0.65-1.52,2.75-4.65,4.29-5.51l-0.03-0.71
	c1.1-0.5,1.6-1.79,2.51-2.56c6.03-5.11,1.89-12.34-3.23-15.55l-0.01-0.64c-1.06-2.26-4.21-2.22-5.51-5.73
	c1.03-0.02-0.28-1.3-0.47-1.44l0.73-2.53c2.02-0.44,2.84-0.24,3.85-0.44c2.79-0.59,8.79-5.22,11.28-7.29
	c-0.29-1.51,3.21-2.85,2.15-4.18c-2.79-3.5-16.51-4.06-18.87-4.89c-1.57-0.56-1.67-1.48-2.14-2.9l0.69-0.46
	c0.41-4.77-6.76-10.02-6.88-12.73l-0.85,0.03c-1.24-2.54-5.28-0.88-7.17-0.88c-3.16-0.01-4.65-4.76-5.29-6.4
	C25.22,20.04,25,20.73,27.01,19.13z M110.73,65.72c4.85,0.11-0.01,6.88-1.35,1.75C110.05,66.97,110.21,66.31,110.73,65.72z
	 M77.12,96.51c-0.4,0.59-4.43,5.8-4.4,6.51c0.7,0.23,6.57,0.01,6.51-1.17C78.5,100.25,78.67,96.44,77.12,96.51z"/>
</svg>
